<?xml version="1.0" encoding="UTF-8" standalone="no"?>
<svg
   xmlns:dc="http://purl.org/dc/elements/1.1/"
   xmlns:cc="http://creativecommons.org/ns#"
   xmlns:rdf="http://www.w3.org/1999/02/22-rdf-syntax-ns#"
   xmlns:svg="http://www.w3.org/2000/svg"
   xmlns="http://www.w3.org/2000/svg"
   xmlns:sodipodi="http://sodipodi.sourceforge.net/DTD/sodipodi-0.dtd"
   xmlns:inkscape="http://www.inkscape.org/namespaces/inkscape"
   viewBox="0 0 152.7 100.69"
   version="1.1"
   id="svg6"
   sodipodi:docname="logo.svg"
   inkscape:version="0.92.3 (2405546, 2018-03-11)">
  <metadata
     id="metadata12">
    <rdf:RDF>
      <cc:Work
         rdf:about="">
        <dc:format>image/svg+xml</dc:format>
        <dc:type
           rdf:resource="http://purl.org/dc/dcmitype/StillImage" />
      </cc:Work>
    </rdf:RDF>
  </metadata>
  <defs
     id="defs10" />
  <sodipodi:namedview
     pagecolor="#ffffff"
     bordercolor="#666666"
     borderopacity="1"
     objecttolerance="10"
     gridtolerance="10"
     guidetolerance="10"
     inkscape:pageopacity="0"
     inkscape:pageshadow="2"
     inkscape:window-width="1920"
     inkscape:window-height="986"
     id="namedview8"
     showgrid="false"
     inkscape:zoom="2.3438275"
     inkscape:cx="76.349998"
     inkscape:cy="50.345001"
     inkscape:window-x="2149"
     inkscape:window-y="-11"
     inkscape:window-maximized="1"
     inkscape:current-layer="svg6" />
  <path
     d="M1.96 0C.88 0 0 .85 0 1.88v88.3c0 1 .88 1.86 1.94 1.86h26.1v-1.65H1.96c-.15 0-.25-.1-.25-.23V1.87c0-.14.1-.22.24-.22h148.8c.15 0 .24.08.24.23v88.3c0 .13-.1.22-.24.22h-27.4v1.64h27.4c1.07 0 1.95-.86 1.95-1.88V1.87c0-1.02-.88-1.87-1.94-1.87H1.96z"
     white-space="normal"
     style="text-decoration-color:#000000;isolation:auto;mix-blend-mode:normal;text-indent:0;block-progression:tb;text-decoration-line:none;text-transform:none;text-decoration-style:solid"
     color="#000"
     solid-color="#000000"
     id="path2" />
  <path
     inkscape:connector-curvature="0"
     d="M 72.43,75.45 C 69.21,75.1 67.95,74.91 66,74.48 c -4.5,-1 -8.23,-2.75 -11.48,-5.4 -8.24,-6.7 -13,-19.6 -14.36,-38.8 -0.32,-4.66 -0.4,-7.98 -0.23,-8.34 0.25,-0.5 0.93,-1.27 1.48,-1.7 4.06,-3.24 14,-5.02 30.3,-5.44 7.44,-0.18 16.9,0.22 23.04,0.98 5.87,0.73 9.62,1.64 12.4,3 1.04,0.52 1.3,0.7 1.95,1.34 1.12,1.1 1.14,1.2 1.27,4.88 0.05,1.65 0.1,3 0.12,3.02 0,0 0.25,-0.07 0.54,-0.18 1.34,-0.52 3.74,-1.3 5.06,-1.63 2.38,-0.6 3.17,-0.72 5.18,-0.72 2.04,0 2.84,0.15 4.15,0.8 1.93,0.95 4.3,3.56 5.42,5.96 0.97,2.14 1.3,3.56 1.28,5.85 0,1.9 -0.16,2.8 -0.75,4.58 -2.3,6.9 -10.07,14.34 -20.6,19.8 -4.68,2.4 -9.83,4.25 -13.62,4.86 l -1.05,0.16 -0.82,0.67 c -4.08,3.3 -9.88,5.82 -15.56,6.73 -2.63,0.42 -6,0.66 -7.3,0.53 z m 34.03,-19.1 c 3.4,-0.8 6.9,-2.25 9.45,-3.93 4.18,-2.75 7,-6.07 8.3,-9.84 0.46,-1.34 0.64,-2.35 0.64,-3.64 -0.02,-2 -0.5,-3.4 -1.58,-4.45 -1.07,-1.06 -2.34,-1.5 -4.08,-1.38 -2.25,0.13 -4.6,1.07 -7.45,2.98 -2.05,1.36 -1.87,1.1 -2.14,3.02 -0.86,6.16 -2.45,11.7 -4.7,16.46 l -0.55,1.2 0.46,-0.07 c 0.26,-0.04 1,-0.2 1.64,-0.35 z M 79.32,48.58 c 1.38,-2.07 2.65,-3.9 2.82,-4.03 0.58,-0.5 1.44,-0.46 2,0.06 0.16,0.17 1.45,2.02 2.85,4.12 l 2.55,3.82 0.02,-12.5 V 27.5 c -0.02,0 -0.74,0.08 -1.62,0.2 -2.67,0.4 -4.73,0.55 -8.16,0.6 l -3.3,0.06 0.03,7.1 c 0.04,9.5 0.13,17.06 0.22,16.96 0.04,-0.04 1.2,-1.77 2.6,-3.85 z M 73.26,27.01 c 0.04,-0.75 0.07,-0.9 0.3,-1.2 0.5,-0.66 0.47,-0.65 4.97,-0.66 5.52,0 7.38,-0.14 11,-0.82 1.87,-0.35 2.17,-0.34 2.63,0.04 0.47,0.4 0.6,0.78 0.6,1.68 0,1 -0.2,0.94 1.98,0.6 4.34,-0.7 6.84,-1.46 7.82,-2.4 0.45,-0.45 0.47,-0.8 0.06,-1.26 -0.35,-0.4 -0.9,-0.72 -1.78,-1.05 -4.46,-1.68 -14.23,-2.7 -25.75,-2.7 -11.48,0.02 -21.44,1.06 -25.65,2.7 -0.84,0.33 -1.65,0.9 -1.87,1.28 -0.55,1 1.2,2 4.94,2.84 4.5,1 12.1,1.7 19.08,1.78 h 1.66 L 73.28,27 Z"
     id="path4"
     sodipodi:nodetypes="ccccccccccccccscccccccccccccccccccccccccccccccccccccccccccscccccccccccc" />
  <text
     xml:space="preserve"
     style="font-style:normal;font-weight:normal;font-size:40px;line-height:1.25;font-family:sans-serif;letter-spacing:0px;word-spacing:0px;fill:#000000;fill-opacity:1;stroke:none"
     x="63.997883"
     y="94.716866"
     id="text3723"><tspan
       sodipodi:role="line"
       id="tspan3721"
       x="63.997883"
       y="130.10748" /></text>
  <text
     xml:space="preserve"
     style="font-style:normal;font-weight:normal;font-size:24px;line-height:1.25;font-family:sans-serif;letter-spacing:0px;word-spacing:0px;fill:#000000;fill-opacity:1;stroke:none"
     x="34.558857"
     y="87.037125"
     id="text3727"><tspan
       sodipodi:role="line"
       id="tspan3725"
       x="34.558857"
       y="108.2715"></tspan></text>
  <text
     xml:space="preserve"
     style="font-style:normal;font-weight:normal;font-size:24px;line-height:1.25;font-family:sans-serif;letter-spacing:0px;word-spacing:0px;fill:#000000;fill-opacity:1;stroke:none"
     x="32.425594"
     y="98.55674"
     id="text3731"><tspan
       sodipodi:role="line"
       id="tspan3729"
       x="32.425594"
       y="98.55674">H.E.A.T</tspan></text>
</svg>
