<?xml version="1.0" encoding="UTF-8" standalone="no"?>
<svg
   xmlns:dc="http://purl.org/dc/elements/1.1/"
   xmlns:rdf="http://www.w3.org/1999/02/22-rdf-syntax-ns#"
   xmlns:svg="http://www.w3.org/2000/svg"
   xmlns="http://www.w3.org/2000/svg"
   xmlns:sodipodi="http://sodipodi.sourceforge.net/DTD/sodipodi-0.dtd"
   xmlns:inkscape="http://www.inkscape.org/namespaces/inkscape"
   viewBox="0 0 152.7 100.69"
   version="1.1"
   id="svg6"
   sodipodi:docname="logo.svg"
   inkscape:version="0.92.4 (5da689c313, 2019-01-14)">
  <metadata
     id="metadata12">
    <rdf:RDF>
      <cc:Work
         rdf:about="">
        <dc:format>image/svg+xml</dc:format>
        <dc:type
           rdf:resource="http://purl.org/dc/dcmitype/StillImage" />
      </cc:Work>
    </rdf:RDF>
  </metadata>
  <defs
     id="defs10">
    <inkscape:path-effect
       effect="spiro"
       id="path-effect3771"
       is_visible="true" />
    <inkscape:path-effect
       effect="bspline"
       id="path-effect3767"
       is_visible="true"
       weight="33.333333"
       steps="2"
       helper_size="0"
       apply_no_weight="true"
       apply_with_weight="true"
       only_selected="false" />
  </defs>
  <sodipodi:namedview
     pagecolor="#ffffff"
     bordercolor="#666666"
     borderopacity="1"
     objecttolerance="10"
     gridtolerance="10"
     guidetolerance="10"
     inkscape:pageopacity="0"
     inkscape:pageshadow="2"
     inkscape:window-width="3840"
     inkscape:window-height="2035"
     id="namedview8"
     showgrid="false"
     inkscape:zoom="2.3438275"
     inkscape:cx="76.349998"
     inkscape:cy="50.345001"
     inkscape:window-x="-13"
     inkscape:window-y="-13"
     inkscape:window-maximized="1"
     inkscape:current-layer="g3882" />
  <path
     d="M1.96 0C.88 0 0 .85 0 1.88v88.3c0 1 .88 1.86 1.94 1.86h26.1v-1.65H1.96c-.15 0-.25-.1-.25-.23V1.87c0-.14.1-.22.24-.22h148.8c.15 0 .24.08.24.23v88.3c0 .13-.1.22-.24.22h-27.4v1.64h27.4c1.07 0 1.95-.86 1.95-1.88V1.87c0-1.02-.88-1.87-1.94-1.87H1.96z"
     white-space="normal"
     style="text-decoration-color:#000000;isolation:auto;mix-blend-mode:normal;text-indent:0;block-progression:tb;text-decoration-line:none;text-transform:none;text-decoration-style:solid"
     color="#000"
     solid-color="#000000"
     id="path2" />
  <text
     xml:space="preserve"
     style="font-style:normal;font-weight:normal;font-size:40px;line-height:1.25;font-family:sans-serif;letter-spacing:0px;word-spacing:0px;fill:#000000;fill-opacity:1;stroke:none"
     x="63.997883"
     y="94.716866"
     id="text3723"><tspan
       sodipodi:role="line"
       id="tspan3721"
       x="63.997883"
       y="130.10748" /></text>
  <text
     xml:space="preserve"
     style="font-style:normal;font-weight:normal;font-size:24px;line-height:1.25;font-family:sans-serif;letter-spacing:0px;word-spacing:0px;fill:#000000;fill-opacity:1;stroke:none"
     x="34.558857"
     y="87.037125"
     id="text3727"><tspan
       sodipodi:role="line"
       id="tspan3725"
       x="34.558857"
       y="108.2715" /></text>
  <text
     xml:space="preserve"
     style="font-style:normal;font-weight:normal;font-size:24px;line-height:1.25;font-family:sans-serif;letter-spacing:0px;word-spacing:0px;fill:#000000;fill-opacity:1;stroke:none"
     x="32.425594"
     y="98.55674"
     id="text3731"><tspan
       sodipodi:role="line"
       id="tspan3729"
       x="32.425594"
       y="98.55674">H.E.A.T</tspan></text>
  <g
     id="g3831"
     transform="matrix(0.76397524,0,0,0.76929517,31.20275,17.354686)">
    <path
       id="path3787"
       d="m 39.73828,29.78613 v 16.93793 a 4.38141,4.38141 0 0 0 -2.41309,-0.726 h -2.68652 a 0.99942,0.99942 0 0 0 -1,1 v 11.2998 a 4.47267,4.47267 0 0 0 1.38379,3.22754 l 10.69141,10.16308 a 1.0002039,1.0002039 0 1 0 1.37891,-1.44922 L 36.40039,60.07617 A 2.46378,2.46378 0 0 1 35.63867,58.29785 V 47.998 h 1.68653 a 2.41521,2.41521 0 0 1 2.41309,2.41309 v 7.04492 a 1,1 0 0 0 2,0 V 29.78613 a 1.83252,1.83252 0 0 1 3.665,0 v 14.66992 a 1,1 0 0 0 2,0 v -1.34277 a 1.65088,1.65088 0 1 1 3.30176,0 v 1.34277 a 1,1 0 0 0 2,0 v -1.34277 a 1.65039,1.65039 0 1 1 3.30078,0 v 1.34277 a 1,1 0 0 0 2,0 v -1.34277 a 1.65088,1.65088 0 1 1 3.30176,0 v 21.18555 l -2.46191,3.418 a 1.00115,1.00115 0 0 0 -0.18848,0.584 v 3.583 a 1,1 0 0 0 2,0 V 68.623 l 2.46191,-3.418 a 1.00115,1.00115 0 0 0 0.18848,-0.584 V 43.11328 a 3.64069,3.64069 0 0 0 -6.3017,-2.49536 3.61644,3.61644 0 0 0 -5.3009,0 3.57719,3.57719 0 0 0 -4.3017,-0.74316 V 29.78613 a 3.83252,3.83252 0 0 0 -7.665,0 z"
       inkscape:connector-curvature="0" />
    <path
       id="path3789"
       d="m 44.57129,20.37012 v -3.583 a 1,1 0 0 0 -2,0 v 3.583 a 1,1 0 1 0 2,0 z"
       inkscape:connector-curvature="0" />
    <path
       id="path3791"
       d="m 51.86328,18.917 -2.5332,2.5332 a 0.99989142,0.99989142 0 1 0 1.41406,1.41406 l 2.5332,-2.5332 A 0.99989142,0.99989142 0 0 0 51.86328,18.917 Z"
       inkscape:connector-curvature="0" />
    <path
       id="path3793"
       d="m 35.875,34.90527 -2.5332,2.53418 a 0.99989142,0.99989142 0 1 0 1.41406,1.41406 l 2.5332,-2.53418 A 0.99989142,0.99989142 0 0 0 35.875,34.90527 Z"
       inkscape:connector-curvature="0" />
    <path
       id="path3795"
       d="m 51.82324,28.88477 a 0.99942,0.99942 0 0 0 1,1 h 3.583 a 1,1 0 0 0 0,-2 h -3.583 a 0.99942,0.99942 0 0 0 -1,1 z"
       inkscape:connector-curvature="0" />
    <path
       id="path3797"
       d="m 29.21191,28.88379 a 0.99942,0.99942 0 0 0 1,1 h 3.583 a 1,1 0 0 0 0,-2 h -3.583 a 0.99942,0.99942 0 0 0 -1,1 z"
       inkscape:connector-curvature="0" />
    <path
       id="path3799"
       d="m 49.32715,36.31738 2.53418,2.53418 a 0.99989142,0.99989142 0 0 0 1.41406,-1.41406 l -2.53418,-2.53418 a 0.99989142,0.99989142 0 0 0 -1.41406,1.41406 z"
       inkscape:connector-curvature="0" />
    <path
       id="path3801"
       d="m 34.75488,18.91211 a 0.99989142,0.99989142 0 0 0 -1.41406,1.41406 l 2.5332,2.53418 a 0.99989142,0.99989142 0 0 0 1.41406,-1.41406 z"
       inkscape:connector-curvature="0" />
  </g>
  <flowRoot
     xml:space="preserve"
     id="flowRoot3833"
     style="fill:black;fill-opacity:1;stroke:none;font-family:sans-serif;font-style:normal;font-weight:normal;font-size:16px;line-height:1.25;letter-spacing:0px;word-spacing:0px"><flowRegion
       id="flowRegion3835"><rect
         id="rect3837"
         width="6.3997884"
         height="29.439026"
         x="75.944153"
         y="10.23966" /></flowRegion><flowPara
       id="flowPara3839"></flowPara></flowRoot>  <g
     id="g3882"
     transform="translate(-67.655799,82.455365)">
    <path
       id="path3865"
       d="m 174.06369,-54.409023 c -0.45316,-0.605312 -1.05737,-0.907968 -1.81262,-0.907968 -0.75526,0 -1.35947,0.302656 -1.81262,0.907968 l -9.3652,12.560224 c -0.45316,0.75664 -0.60421,1.664608 -0.15105,2.421248 l 16.46462,30.416927 c 0.45315,0.75664 1.20841,1.210624 1.96367,1.210624 h 22.80879 c 0.90631,0 1.66157,-0.453984 1.96367,-1.210624 0.45316,-0.75664 0.30211,-1.664608 -0.15105,-2.26992 z m 6.49521,41.917855 -15.10516,-27.995679 6.64627,-8.928352 25.52772,36.772703 H 180.5589 Z m -13.44359,4.53984 c 0.75526,0 1.51052,-0.453984 1.96367,-1.059296 0.45316,-0.75664 0.45316,-1.51328 0,-2.26992 l -34.28871,-63.406431 c -0.3021,-0.75664 -1.20841,-1.210624 -1.96367,-1.210624 -0.90631,0 -1.51052,0.453984 -1.96367,1.059296 l -18.88145,32.53552 -8.00574,-8.020384 c -0.45315,-0.453984 -1.20841,-0.75664 -1.96367,-0.605312 -0.75525,0.151328 -1.35946,0.453984 -1.66156,1.210624 l -18.57935,38.588639 c -0.302104,0.75664 -0.302104,1.51328 0.151051,2.26992 C 82.375366,-8.253984 83.130624,-7.8 83.885882,-7.8 h 83.229428 z m -64.19693,-36.924031 7.85469,7.869055 c 0.45315,0.453984 1.20841,0.75664 1.96367,0.605312 0.75525,-0.151328 1.35946,-0.453984 1.66156,-1.059296 l 18.4283,-31.627551 30.51242,56.596671 H 87.360069 Z"
       inkscape:connector-curvature="0"
       style="stroke-width:1.51189733" />
  </g>
</svg>
